<?xml version="1.0" standalone="no"?>
<!DOCTYPE svg PUBLIC "-//W3C//DTD SVG 20010904//EN"
 "http://www.w3.org/TR/2001/REC-SVG-20010904/DTD/svg10.dtd">
<svg version="1.0" xmlns="http://www.w3.org/2000/svg"
 width="260.000000pt" height="260.000000pt" viewBox="0 0 260.000000 260.000000"
 preserveAspectRatio="xMidYMid meet">
<metadata>
Created by potrace 1.14, written by Peter Selinger 2001-2017
</metadata>
<g transform="translate(0.000000,260.000000) scale(0.100000,-0.100000)"
fill="#000000" stroke="none">
<path d="M1049 2528 c-131 -25 -228 -64 -339 -136 -30 -20 -57 -39 -60 -42 -3
-3 -23 -21 -45 -40 -36 -32 -38 -32 -15 -5 14 16 54 58 89 92 36 35 62 63 58
63 -13 0 -160 -91 -215 -134 -147 -113 -289 -288 -367 -451 -41 -86 -87 -216
-99 -280 -4 -16 -9 -41 -11 -55 -24 -119 -24 -319 -1 -450 83 -466 413 -844
869 -995 122 -40 149 -45 292 -51 l110 -4 -62 23 c-206 79 -345 246 -357 428
-2 33 10 39 19 10 11 -37 87 -145 142 -203 160 -167 387 -234 648 -193 54 9
69 25 25 26 -19 0 -44 2 -55 4 -11 2 -36 7 -55 10 -19 4 -61 16 -93 27 -233
80 -336 253 -302 503 4 27 11 58 15 70 7 16 9 12 9 -17 1 -21 1 -39 1 -40 -1
-23 49 -167 72 -210 57 -107 192 -206 303 -224 22 -3 44 -8 49 -11 4 -3 -34
37 -86 88 -94 94 -145 174 -162 254 -8 36 -9 111 -2 140 2 11 5 22 5 23 3 11
86 -67 111 -103 35 -51 69 -133 72 -175 7 -93 43 39 42 155 0 78 -4 97 -28
145 -16 30 -39 69 -52 87 l-24 32 33 -5 c17 -2 49 -16 71 -31 37 -26 92 -109
101 -149 2 -11 8 -40 14 -66 14 -60 8 -236 -8 -267 -10 -17 -10 -22 -1 -16 17
11 56 102 75 176 19 74 22 213 6 284 -17 72 -68 159 -118 205 -47 42 -142 92
-180 94 -30 1 -30 12 1 20 35 9 108 -8 150 -33 43 -27 49 -11 14 35 -48 63
-116 105 -191 119 -41 8 -50 24 -14 26 50 4 83 -3 115 -21 l33 -20 -7 22 c-18
61 -45 93 -98 120 l-29 15 75 36 c130 63 171 162 129 314 -14 52 -28 63 -23
19 6 -48 -14 -110 -46 -141 -27 -28 -109 -71 -118 -62 -3 2 11 20 30 39 59 59
76 174 36 245 -19 35 -96 103 -115 103 -4 0 4 -12 18 -26 65 -65 54 -188 -23
-245 -35 -26 -66 -25 -135 5 -99 42 -203 31 -298 -32 -22 -15 -50 -27 -61 -28
-129 -4 -228 -60 -277 -156 -23 -45 -20 -47 18 -12 39 37 106 65 169 71 87 8
156 -28 201 -105 33 -56 52 -144 42 -190 -10 -45 -52 -103 -91 -126 -29 -18
-30 -20 -11 -27 11 -4 36 -6 56 -4 35 4 36 3 26 -16 -14 -27 -74 -52 -126 -52
-24 0 -43 -2 -43 -4 0 -11 75 -34 115 -35 25 -1 45 -3 45 -5 0 -1 -21 -14 -46
-29 -32 -19 -61 -27 -95 -28 -27 -1 -49 -4 -49 -7 0 -13 82 -42 120 -42 34 0
38 -2 28 -14 -50 -60 -206 -85 -307 -49 -101 37 -204 151 -227 252 -11 51 -14
174 -4 199 20 53 -39 13 -77 -53 -24 -40 -28 -58 -28 -124 0 -43 -1 -78 -2
-78 0 0 -12 19 -26 43 -73 124 -84 253 -31 367 46 97 117 182 274 323 173 156
231 230 256 325 17 65 11 149 -14 202 -12 26 -19 34 -16 19 11 -52 11 -65 2
-99 -11 -41 -68 -140 -81 -140 -4 0 -5 10 -1 23 10 27 9 80 0 131 -9 46 -12
44 -21 -14 -8 -60 -48 -134 -91 -173 -70 -62 -194 -117 -194 -86 0 21 65 166
104 233 51 86 161 201 245 254 58 38 197 99 246 108 11 2 31 6 45 9 14 2 48 7
75 11 28 3 52 8 55 11 7 6 -159 -1 -201 -9z"/>
<path d="M1534 2522 c3 -5 16 -10 28 -10 36 0 143 -39 201 -74 115 -68 216
-207 250 -343 14 -56 14 -58 -1 -35 -35 55 -125 133 -185 160 -59 27 -161 51
-144 34 4 -4 14 -9 22 -10 34 -5 108 -48 155 -91 88 -79 131 -178 131 -304 1
-70 -7 -107 -49 -234 -19 -59 -26 -100 -25 -160 0 -77 25 -195 41 -195 5 0 9
26 9 58 1 62 32 166 65 221 20 32 22 33 35 15 20 -28 43 -112 43 -160 0 -86
-40 -222 -100 -344 -31 -61 -67 -172 -77 -235 -14 -82 -5 -257 16 -340 12 -43
25 -83 29 -87 4 -4 7 28 7 70 1 97 24 148 136 287 81 101 156 237 185 333 8
30 18 52 20 49 6 -5 5 -209 -1 -247 -13 -87 -20 -115 -50 -205 -18 -55 -50
-129 -70 -165 -45 -81 -135 -199 -182 -240 -58 -51 -33 -42 43 15 162 122 287
270 378 448 98 193 136 354 135 587 -1 218 -36 371 -126 557 -63 130 -185 294
-281 377 -30 26 -27 19 24 -55 147 -216 201 -424 144 -557 -26 -61 -40 -67
-31 -14 20 106 -11 267 -74 392 -35 69 -53 91 -41 48 17 -56 19 -78 19 -149 0
-65 -5 -87 -32 -144 -17 -37 -33 -66 -36 -64 -2 3 2 29 10 59 14 53 14 191 1
253 -14 63 -51 142 -97 212 -50 74 -151 175 -176 175 -7 0 -13 3 -13 8 0 16
-179 85 -250 97 -25 4 -55 9 -68 12 -13 2 -21 0 -18 -5z"/>
</g>
</svg>
